<?xml version="1.0" standalone="no"?>
<!DOCTYPE svg PUBLIC "-//W3C//DTD SVG 20010904//EN"
 "http://www.w3.org/TR/2001/REC-SVG-20010904/DTD/svg10.dtd">
<svg version="1.0" xmlns="http://www.w3.org/2000/svg"
 width="64.000000pt" height="64.000000pt" viewBox="0 0 64.000000 64.000000"
 preserveAspectRatio="xMidYMid meet">

<g transform="translate(0.000000,64.000000) scale(0.100000,-0.100000)" stroke="none">
<path d="M250 541 c-56 -56 -77 -113 -63 -170 8 -29 6 -42 -9 -66 -24 -41 -23
-100 4 -143 l21 -35 37 43 c32 37 37 40 49 26 17 -20 45 -20 62 0 12 14 17 11
49 -26 l37 -43 21 35 c27 43 28 102 4 143 -15 24 -17 37 -9 66 14 57 -7 114
-63 170 -28 28 -58 49 -70 49 -12 0 -42 -21 -70 -49z m117 -7 c18 -14 40 -39
49 -56 16 -30 21 -101 10 -136 -4 -11 0 -24 8 -31 29 -24 38 -76 22 -115 -8
-20 -19 -36 -23 -36 -4 0 -21 19 -37 41 l-28 40 -24 -22 -24 -22 -24 22 -24
22 -28 -40 c-16 -22 -33 -41 -37 -41 -4 0 -15 16 -23 36 -16 39 -9 81 21 114
10 11 12 25 6 53 -15 65 8 129 61 171 41 32 53 32 95 0z"/>
<path d="M300 493 c-55 -20 -68 -87 -24 -122 15 -12 34 -21 44 -21 33 0 70 39
70 74 0 46 -49 84 -90 69z m52 -30 c27 -24 24 -71 -7 -85 -57 -26 -101 37 -58
84 20 22 41 23 65 1z"/>
<path d="M264 124 c-3 -12 -3 -32 1 -44 5 -16 10 -19 20 -10 10 8 16 7 24 -7
11 -17 11 -17 22 0 8 14 14 16 24 7 11 -9 15 -7 20 13 13 49 0 63 -55 63 -44
0 -51 -3 -56 -22z m106 -17 c0 -12 -5 -17 -14 -14 -7 3 -19 0 -25 -6 -8 -8
-14 -8 -22 0 -6 6 -18 9 -25 6 -9 -3 -14 2 -14 14 0 16 7 19 50 19 43 0 50 -3
50 -19z"/>
</g>
</svg>
